<svg id="visual" viewBox="0 0 900 600" width="900" height="600" xmlns="http://www.w3.org/2000/svg" xmlns:xlink="http://www.w3.org/1999/xlink" version="1.1"><rect x="0" y="0" width="900" height="600" fill="#ffffff"></rect><path d="M667 600L646.3 585.7C625.7 571.3 584.3 542.7 562.3 514.2C540.3 485.7 537.7 457.3 543.3 428.8C549 400.3 563 371.7 584.8 343C606.7 314.3 636.3 285.7 652.3 257C668.3 228.3 670.7 199.7 659.7 171.2C648.7 142.7 624.3 114.3 620.2 85.8C616 57.3 632 28.7 640 14.3L648 0L900 0L900 14.3C900 28.7 900 57.3 900 85.8C900 114.3 900 142.7 900 171.2C900 199.7 900 228.3 900 257C900 285.7 900 314.3 900 343C900 371.7 900 400.3 900 428.8C900 457.3 900 485.7 900 514.2C900 542.7 900 571.3 900 585.7L900 600Z" fill="#fa7268"></path><path d="M600 600L615.3 585.7C630.7 571.3 661.3 542.7 679 514.2C696.7 485.7 701.3 457.3 701.7 428.8C702 400.3 698 371.7 695 343C692 314.3 690 285.7 693.7 257C697.3 228.3 706.7 199.7 709.2 171.2C711.7 142.7 707.3 114.3 690.5 85.8C673.7 57.3 644.3 28.7 629.7 14.3L615 0L900 0L900 14.3C900 28.7 900 57.3 900 85.8C900 114.3 900 142.7 900 171.2C900 199.7 900 228.3 900 257C900 285.7 900 314.3 900 343C900 371.7 900 400.3 900 428.8C900 457.3 900 485.7 900 514.2C900 542.7 900 571.3 900 585.7L900 600Z" fill="#ef5f67"></path><path d="M763 600L754.3 585.7C745.7 571.3 728.3 542.7 729.5 514.2C730.7 485.7 750.3 457.3 757 428.8C763.7 400.3 757.3 371.7 752 343C746.7 314.3 742.3 285.7 744.2 257C746 228.3 754 199.7 749.8 171.2C745.7 142.7 729.3 114.3 718 85.8C706.7 57.3 700.3 28.7 697.2 14.3L694 0L900 0L900 14.3C900 28.7 900 57.3 900 85.8C900 114.3 900 142.7 900 171.2C900 199.7 900 228.3 900 257C900 285.7 900 314.3 900 343C900 371.7 900 400.3 900 428.8C900 457.3 900 485.7 900 514.2C900 542.7 900 571.3 900 585.7L900 600Z" fill="#e34c67"></path><path d="M761 600L767.2 585.7C773.3 571.3 785.7 542.7 784.3 514.2C783 485.7 768 457.3 760.2 428.8C752.3 400.3 751.7 371.7 761.8 343C772 314.3 793 285.7 800 257C807 228.3 800 199.7 795 171.2C790 142.7 787 114.3 776 85.8C765 57.3 746 28.7 736.5 14.3L727 0L900 0L900 14.3C900 28.7 900 57.3 900 85.8C900 114.3 900 142.7 900 171.2C900 199.7 900 228.3 900 257C900 285.7 900 314.3 900 343C900 371.7 900 400.3 900 428.8C900 457.3 900 485.7 900 514.2C900 542.7 900 571.3 900 585.7L900 600Z" fill="#d53867"></path><path d="M843 600L840.7 585.7C838.3 571.3 833.7 542.7 827.2 514.2C820.7 485.7 812.3 457.3 806.5 428.8C800.7 400.3 797.3 371.7 799.2 343C801 314.3 808 285.7 818 257C828 228.3 841 199.7 840.2 171.2C839.3 142.7 824.7 114.3 817.3 85.8C810 57.3 810 28.7 810 14.3L810 0L900 0L900 14.3C900 28.7 900 57.3 900 85.8C900 114.3 900 142.7 900 171.2C900 199.7 900 228.3 900 257C900 285.7 900 314.3 900 343C900 371.7 900 400.3 900 428.8C900 457.3 900 485.7 900 514.2C900 542.7 900 571.3 900 585.7L900 600Z" fill="#c62368"></path></svg>