<svg id="visual" viewBox="0 0 960 540" width="960" height="540" xmlns="http://www.w3.org/2000/svg" xmlns:xlink="http://www.w3.org/1999/xlink" version="1.1"><rect x="0" y="0" width="960" height="540" fill="#FFF"></rect><path d="M601 540L593.5 522C586 504 571 468 577.5 432C584 396 612 360 616.7 324C621.3 288 602.7 252 602 216C601.3 180 618.7 144 629.3 108C640 72 644 36 646 18L648 0L960 0L960 18C960 36 960 72 960 108C960 144 960 180 960 216C960 252 960 288 960 324C960 360 960 396 960 432C960 468 960 504 960 522L960 540Z" fill="#fa6969"></path><path d="M641 540L645.8 522C650.7 504 660.3 468 648.7 432C637 396 604 360 588.8 324C573.7 288 576.3 252 573 216C569.7 180 560.3 144 580.2 108C600 72 649 36 673.5 18L698 0L960 0L960 18C960 36 960 72 960 108C960 144 960 180 960 216C960 252 960 288 960 324C960 360 960 396 960 432C960 468 960 504 960 522L960 540Z" fill="#ef4b71"></path><path d="M713 540L711.7 522C710.3 504 707.7 468 706 432C704.3 396 703.7 360 692.5 324C681.3 288 659.7 252 663.8 216C668 180 698 144 712.8 108C727.7 72 727.3 36 727.2 18L727 0L960 0L960 18C960 36 960 72 960 108C960 144 960 180 960 216C960 252 960 288 960 324C960 360 960 396 960 432C960 468 960 504 960 522L960 540Z" fill="#df2b7d"></path><path d="M701 540L710.5 522C720 504 739 468 753.2 432C767.3 396 776.7 360 769 324C761.3 288 736.7 252 731 216C725.3 180 738.7 144 732.3 108C726 72 700 36 687 18L674 0L960 0L960 18C960 36 960 72 960 108C960 144 960 180 960 216C960 252 960 288 960 324C960 360 960 396 960 432C960 468 960 504 960 522L960 540Z" fill="#c7068b"></path><path d="M830 540L817.7 522C805.3 504 780.7 468 777.3 432C774 396 792 360 788.3 324C784.7 288 759.3 252 761.5 216C763.7 180 793.3 144 807.2 108C821 72 819 36 818 18L817 0L960 0L960 18C960 36 960 72 960 108C960 144 960 180 960 216C960 252 960 288 960 324C960 360 960 396 960 432C960 468 960 504 960 522L960 540Z" fill="#a6009a"></path><path d="M815 540L812.8 522C810.7 504 806.3 468 816 432C825.7 396 849.3 360 862.2 324C875 288 877 252 863.8 216C850.7 180 822.3 144 813.7 108C805 72 816 36 821.5 18L827 0L960 0L960 18C960 36 960 72 960 108C960 144 960 180 960 216C960 252 960 288 960 324C960 360 960 396 960 432C960 468 960 504 960 522L960 540Z" fill="#780fa8"></path><path d="M886 540L888.2 522C890.3 504 894.7 468 895.3 432C896 396 893 360 889.8 324C886.7 288 883.3 252 880.5 216C877.7 180 875.3 144 877.7 108C880 72 887 36 890.5 18L894 0L960 0L960 18C960 36 960 72 960 108C960 144 960 180 960 216C960 252 960 288 960 324C960 360 960 396 960 432C960 468 960 504 960 522L960 540Z" fill="#1f23b3"></path></svg>